<svg width="24" height="25" viewBox="0 0 24 25" fill="none" xmlns="http://www.w3.org/2000/svg">
<g clip-path="url(#clip0_1593_18740)">
<path d="M20.0163 9.53345H4.54912C3.8505 9.53345 3.28415 10.099 3.28415 10.7966V18.5191C3.28415 19.2167 3.8505 19.7823 4.54912 19.7823H20.0163C20.7149 19.7823 21.2813 19.2167 21.2813 18.5191V10.7966C21.2813 10.099 20.7149 9.53345 20.0163 9.53345Z" stroke="#2297BE" stroke-width="1.5" stroke-miterlimit="10"/>
<path d="M6.82033 15.3517C7.21727 15.3517 7.53906 15.0303 7.53906 14.634C7.53906 14.2376 7.21727 13.9163 6.82033 13.9163C6.42338 13.9163 6.10159 14.2376 6.10159 14.634C6.10159 15.0303 6.42338 15.3517 6.82033 15.3517Z" fill="#2297BE"/>
<path d="M17.7451 15.3517C18.142 15.3517 18.4638 15.0303 18.4638 14.634C18.4638 14.2376 18.142 13.9163 17.7451 13.9163C17.3482 13.9163 17.0264 14.2376 17.0264 14.634C17.0264 15.0303 17.3482 15.3517 17.7451 15.3517Z" fill="#2297BE"/>
<path d="M20.5433 9.53345L20.0354 6.33728C20.0175 6.17313 19.9674 6.01413 19.8878 5.86941C19.8082 5.72468 19.7008 5.59709 19.5716 5.49394C19.4425 5.3908 19.2943 5.31414 19.1354 5.26837C18.9765 5.2226 18.8102 5.20862 18.6459 5.22723L3.72494 7.53345C3.40087 7.60673 3.11869 7.8044 2.93937 8.08373C2.76006 8.36306 2.698 8.70163 2.76662 9.02627L3.31287 14.7679" stroke="#2297BE" stroke-width="1.5" stroke-linecap="round" stroke-linejoin="round"/>
<path d="M12.2827 11.6292C11.6876 11.6292 11.1058 11.8054 10.611 12.1355C10.1161 12.4657 9.73043 12.935 9.50267 13.4841C9.27492 14.0331 9.21534 14.6373 9.33144 15.2201C9.44755 15.803 9.73413 16.3384 10.155 16.7586C10.5758 17.1789 11.112 17.465 11.6957 17.581C12.2794 17.6969 12.8844 17.6374 13.4342 17.41C13.9841 17.1826 14.454 16.7974 14.7847 16.3033C15.1153 15.8092 15.2918 15.2282 15.2918 14.6339C15.2918 13.837 14.9748 13.0727 14.4105 12.5092C13.8462 11.9457 13.0808 11.6292 12.2827 11.6292ZM12.8002 13.9354H13.3177C13.3669 13.9378 13.4132 13.9591 13.4471 13.9947C13.481 14.0303 13.4999 14.0776 13.4998 14.1268C13.4975 14.1742 13.4775 14.2191 13.4439 14.2527C13.4102 14.2864 13.3652 14.3063 13.3177 14.3086H12.8002C12.7574 14.5297 12.6378 14.7287 12.4625 14.8705C12.2872 15.0123 12.0674 15.0878 11.8419 15.0837H11.6502L12.7523 16.1937C12.7694 16.2107 12.783 16.2308 12.7922 16.2529C12.8015 16.2751 12.8063 16.2989 12.8063 16.3229C12.8063 16.347 12.8015 16.3707 12.7922 16.3929C12.783 16.4151 12.7694 16.4352 12.7523 16.4521C12.7374 16.4707 12.7184 16.4856 12.6968 16.4955C12.6752 16.5055 12.6515 16.5103 12.6277 16.5095C12.5772 16.5088 12.5289 16.4882 12.4935 16.4521L11.0944 15.0263C11.0758 14.9961 11.0659 14.9613 11.0659 14.9258C11.0659 14.8903 11.0758 14.8555 11.0944 14.8253C11.1091 14.7917 11.1332 14.763 11.1638 14.7426C11.1944 14.7222 11.2302 14.7111 11.2669 14.7105H11.8898C12.0127 14.7091 12.1322 14.6697 12.2317 14.5978C12.3313 14.5258 12.406 14.4247 12.4456 14.3086H11.2669C11.2186 14.3086 11.1723 14.2894 11.1382 14.2553C11.104 14.2212 11.0848 14.175 11.0848 14.1268C11.0835 14.1021 11.0873 14.0774 11.0958 14.0542C11.1044 14.0311 11.1176 14.0099 11.1347 13.992C11.1517 13.9741 11.1722 13.9598 11.1949 13.9501C11.2177 13.9403 11.2422 13.9353 11.2669 13.9354H12.4456C12.406 13.8192 12.3313 13.7182 12.2317 13.6462C12.1322 13.5742 12.0127 13.5348 11.8898 13.5335H11.2669C11.2186 13.5335 11.1723 13.5143 11.1382 13.4802C11.104 13.4461 11.0848 13.3999 11.0848 13.3516C11.0834 13.3274 11.0872 13.3031 11.0958 13.2805C11.1045 13.2578 11.1179 13.2372 11.1351 13.22C11.1523 13.2028 11.1729 13.1895 11.1956 13.1808C11.2184 13.1722 11.2426 13.1684 11.2669 13.1698H13.3273C13.3756 13.1698 13.4219 13.189 13.456 13.2231C13.4902 13.2572 13.5094 13.3034 13.5094 13.3516C13.507 13.3991 13.4871 13.444 13.4535 13.4776C13.4198 13.5112 13.3748 13.5311 13.3273 13.5335H12.6277C12.7189 13.6504 12.7783 13.7888 12.8002 13.9354Z" fill="#2297BE"/>
</g>
<defs>
<clipPath id="clip0_1593_18740">
<rect width="20" height="16" fill="white" transform="translate(2 4.5)"/>
</clipPath>
</defs>
</svg>
