<svg width="28" height="28" viewBox="0 0 28 28" fill="none" xmlns="http://www.w3.org/2000/svg">
<g clip-path="url(#clip0_1597_18288)">
<path d="M22.8632 11.5871C23.1253 10.4629 23.0139 9.28418 22.546 8.22897C22.0781 7.17375 21.2791 6.29949 20.27 5.73898C19.2609 5.17846 18.0967 4.96198 16.9536 5.12232C15.8104 5.28265 14.7507 5.81115 13.9347 6.62765L12.6864 7.87492L11.4392 6.62765C10.4433 5.63194 9.09264 5.07273 7.68434 5.07276C6.27604 5.07278 4.92542 5.63219 3.92952 6.62793C2.93363 7.62368 2.37402 8.97399 2.37378 10.3823C2.37354 11.7906 2.93269 13.1414 3.92824 14.1375L12.6549 22.9282L12.6864 22.8969L12.7179 22.9282L19.0307 16.57" stroke="#2297BE" stroke-width="1.5" stroke-linecap="round" stroke-linejoin="round"/>
<path d="M7.48889 13.9416H11.0005L12.509 11.5661L15.1107 17.0343L16.8082 13.9416H25.6329" stroke="#2297BE" stroke-width="1.5" stroke-linecap="round" stroke-linejoin="round"/>
</g>
<defs>
<clipPath id="clip0_1597_18288">
<rect width="28" height="28" fill="white"/>
</clipPath>
</defs>
</svg>
