<svg width="28" height="29" viewBox="0 0 28 29" fill="none" xmlns="http://www.w3.org/2000/svg">
<path d="M16.8933 22.2001C14.8866 23.0473 12.6603 23.2256 10.5443 22.7088C8.42823 22.1919 6.53492 21.0072 5.14476 19.3303C3.7546 17.6533 2.94152 15.5732 2.82593 13.398C2.71035 11.2228 3.29841 9.06822 4.50303 7.25336C5.70764 5.43849 7.46474 4.05984 9.5141 3.32162C11.5635 2.58341 13.7961 2.52491 15.8813 3.15471C17.9665 3.78452 19.7935 5.06918 21.0915 6.81842C22.3896 8.56766 23.0897 10.6885 23.0883 12.8667C23.0922 13.9788 22.9068 15.0835 22.54 16.1334" stroke="#2297BE" stroke-width="1.5" stroke-linecap="round" stroke-linejoin="round"/>
<path d="M21.1517 14.9551C21.1517 14.9551 17.115 19.0501 17.115 22.2467C17.115 23.3173 17.5403 24.3441 18.2973 25.1011C19.0543 25.8581 20.0811 26.2834 21.1517 26.2834C22.2222 26.2834 23.249 25.8581 24.006 25.1011C24.763 24.3441 25.1883 23.3173 25.1883 22.2467C25.1883 18.9217 21.1517 14.9551 21.1517 14.9551Z" stroke="#2297BE" stroke-width="1.5" stroke-linecap="round" stroke-linejoin="round"/>
<path d="M12.95 8.19995V12.855L15.4583 15.2466" stroke="#2297BE" stroke-width="1.5" stroke-linecap="round" stroke-linejoin="round"/>
</svg>
