<svg width="28" height="29" viewBox="0 0 28 29" fill="none" xmlns="http://www.w3.org/2000/svg">
<path d="M6.89503 3.11328H21.105C21.6682 3.11328 22.2083 3.33699 22.6065 3.73519C23.0047 4.13339 23.2284 4.67347 23.2284 5.23661V16.6583C23.2284 17.8702 22.9897 19.0702 22.5259 20.1898C22.0621 21.3094 21.3824 22.3268 20.5254 23.1837C19.6685 24.0406 18.6512 24.7204 17.5316 25.1842C16.4119 25.6479 15.2119 25.8866 14 25.8866V25.8866C11.5525 25.8866 9.20526 24.9143 7.47461 23.1837C5.74397 21.4531 4.7717 19.1058 4.7717 16.6583V5.23661C4.7717 4.67347 4.99541 4.13339 5.39361 3.73519C5.79181 3.33699 6.33189 3.11328 6.89503 3.11328V3.11328Z" stroke="#2297BE" stroke-width="1.5" stroke-miterlimit="10"/>
<path d="M18.7717 6.69495H9.22835C8.86108 6.69495 8.56335 6.99268 8.56335 7.35995V15.9816C8.56335 16.3489 8.86108 16.6466 9.22835 16.6466H18.7717C19.139 16.6466 19.4367 16.3489 19.4367 15.9816V7.35995C19.4367 6.99268 19.139 6.69495 18.7717 6.69495Z" stroke="#2297BE" stroke-width="1.5" stroke-miterlimit="10"/>
<path d="M16.0183 10.0667C15.8171 9.86577 15.5444 9.75293 15.26 9.75293C14.9757 9.75293 14.7029 9.86577 14.5017 10.0667L14 10.5683L13.4983 10.0667C13.2971 9.86577 13.0244 9.75293 12.74 9.75293C12.4557 9.75293 12.1829 9.86577 11.9817 10.0667C11.7808 10.2679 11.6679 10.5406 11.6679 10.825C11.6679 11.1094 11.7808 11.3821 11.9817 11.5833L14 13.6017L16.0183 11.5833C16.2193 11.3821 16.3321 11.1094 16.3321 10.825C16.3321 10.5406 16.2193 10.2679 16.0183 10.0667Z" fill="#2297BE"/>
<path d="M14.035 23.0166C15.0015 23.0166 15.785 22.2331 15.785 21.2666C15.785 20.3001 15.0015 19.5166 14.035 19.5166C13.0685 19.5166 12.285 20.3001 12.285 21.2666C12.285 22.2331 13.0685 23.0166 14.035 23.0166Z" fill="#2297BE"/>
</svg>
