<svg width="24" height="25" viewBox="0 0 24 25" fill="none" xmlns="http://www.w3.org/2000/svg">
<g clip-path="url(#clip0_1593_18749)">
<g clip-path="url(#clip1_1593_18749)">
<path d="M3.61376 4.26017H16.6306C16.9522 4.26016 17.2608 4.39115 17.4892 4.62465C17.7175 4.85815 17.8471 5.17522 17.8497 5.50678V7.08785H3.61376C3.24593 7.08726 2.89298 6.93811 2.63061 6.67234C2.50118 6.53971 2.39882 6.38172 2.32959 6.20765C2.26036 6.03358 2.22566 5.84695 2.22752 5.65883C2.22675 5.47086 2.26195 5.2846 2.33112 5.11069C2.40029 4.93677 2.50207 4.77862 2.63061 4.64531C2.75859 4.51094 2.91174 4.40479 3.08075 4.33335C3.24977 4.26192 3.43111 4.22672 3.61376 4.2298V4.26017Z" stroke="#2297BE" stroke-width="1.5" stroke-miterlimit="10"/>
<path d="M20.691 16.777V19.3817C20.6891 19.7418 20.5517 20.087 20.3076 20.3446C20.179 20.4768 20.0253 20.5801 19.8561 20.6481C19.6869 20.7161 19.5059 20.7474 19.3244 20.7399H3.55478C3.38141 20.7412 3.20951 20.707 3.04908 20.6392C2.88865 20.5714 2.7429 20.4715 2.6203 20.3451C2.49771 20.2187 2.40072 20.0685 2.33497 19.9031C2.26923 19.7377 2.23605 19.5605 2.23736 19.3817V7.0878H19.3539C19.5261 7.085 19.6969 7.11957 19.8553 7.18919C20.0156 7.25931 20.1622 7.35888 20.2879 7.48309C20.4104 7.61099 20.5073 7.76252 20.573 7.92904C20.6406 8.09233 20.6741 8.26844 20.6713 8.44594V11.0507" stroke="#2297BE" stroke-width="1.5" stroke-miterlimit="10"/>
<path d="M2.23735 8.15206V5.7196" stroke="#2297BE" stroke-width="1.5" stroke-miterlimit="10"/>
<path d="M20.75 11.2634H15.6966C15.3567 11.2621 15.0199 11.3301 14.7056 11.4636C14.3913 11.5971 14.1057 11.7934 13.8654 12.0412C13.625 12.289 13.4346 12.5834 13.3051 12.9074C13.1756 13.2314 13.1097 13.5786 13.111 13.929V13.929C13.111 14.6359 13.3834 15.314 13.8683 15.8139C14.3532 16.3138 15.0109 16.5945 15.6966 16.5945H20.75C21.0107 16.5945 21.2608 16.4878 21.4452 16.2977C21.6296 16.1077 21.7331 15.8498 21.7331 15.581V12.3277C21.7398 12.1904 21.7193 12.0531 21.6729 11.9242C21.6265 11.7954 21.5551 11.6776 21.4632 11.578C21.3712 11.4785 21.2605 11.3992 21.1379 11.3452C21.0153 11.2911 20.8834 11.2633 20.75 11.2634Z" stroke="#2297BE" stroke-width="1.5" stroke-miterlimit="10"/>
<path d="M15.6966 14.902C15.8911 14.902 16.0812 14.8426 16.2428 14.7312C16.4045 14.6199 16.5305 14.4616 16.6049 14.2764C16.6793 14.0912 16.6988 13.8874 16.6609 13.6908C16.623 13.4942 16.5293 13.3136 16.3918 13.1719C16.2543 13.0301 16.0792 12.9336 15.8884 12.8945C15.6977 12.8554 15.5001 12.8754 15.3204 12.9521C15.1408 13.0288 14.9872 13.1588 14.8792 13.3255C14.7711 13.4921 14.7135 13.6881 14.7135 13.8885C14.7135 14.1573 14.8171 14.4151 15.0014 14.6052C15.1858 14.7952 15.4359 14.902 15.6966 14.902Z" fill="#2297BE"/>
</g>
</g>
<defs>
<clipPath id="clip0_1593_18749">
<rect width="24" height="24" fill="white" transform="translate(0 0.5)"/>
</clipPath>
<clipPath id="clip1_1593_18749">
<rect width="21" height="18" fill="white" transform="translate(1.5 3.5)"/>
</clipPath>
</defs>
</svg>
