<svg width="28" height="29" viewBox="0 0 28 29" fill="none" xmlns="http://www.w3.org/2000/svg">
<g clip-path="url(#clip0_1593_18628)">
<path d="M19.6367 5.65063H22.9034C23.2059 5.65063 23.5056 5.71023 23.7851 5.82603C24.0647 5.94182 24.3187 6.11155 24.5327 6.32551C24.7466 6.53947 24.9163 6.79348 25.0321 7.07303C25.1479 7.35259 25.2075 7.65221 25.2075 7.9548V23.1215C25.2075 23.4241 25.1479 23.7237 25.0321 24.0032C24.9163 24.2828 24.7466 24.5368 24.5327 24.7508C24.3187 24.9647 24.0647 25.1344 23.7851 25.2502C23.5056 25.366 23.2059 25.4256 22.9034 25.4256H5.10119C4.49009 25.4256 3.90402 25.1829 3.4719 24.7508C3.03979 24.3186 2.79703 23.7326 2.79703 23.1215V7.9548C2.79703 7.3437 3.03979 6.75762 3.4719 6.32551C3.90402 5.89339 4.49009 5.65063 5.10119 5.65063H8.46819" stroke="#2297BE" stroke-width="1.5" stroke-miterlimit="10"/>
<path d="M17.3197 13.6691H10.7455C10.4482 13.6688 10.1613 13.5593 9.93936 13.3615C9.71741 13.1636 9.57584 12.8911 9.54153 12.5958L8.64553 4.93076C8.62502 4.76001 8.64105 4.58684 8.69255 4.42275C8.74405 4.25866 8.82985 4.10739 8.94425 3.97898C9.05865 3.85056 9.19905 3.74794 9.35613 3.67791C9.51321 3.60787 9.68338 3.57203 9.85536 3.57276H18.2122C18.3832 3.57277 18.5522 3.60896 18.7083 3.67894C18.8643 3.74893 19.0037 3.85113 19.1174 3.97884C19.2311 4.10654 19.3166 4.25686 19.368 4.41992C19.4195 4.58298 19.4359 4.75508 19.4162 4.92493L18.5307 12.5899C18.4976 12.8875 18.3556 13.1624 18.132 13.3616C17.9085 13.5608 17.6191 13.6704 17.3197 13.6691V13.6691Z" stroke="#2297BE" stroke-width="1.5" stroke-miterlimit="10"/>
<path d="M14.8184 8.81348L12.5994 13.6691" stroke="#2297BE" stroke-width="1.5" stroke-miterlimit="10" stroke-linecap="round"/>
<path d="M11.4619 20.2561H16.5275" stroke="#2297BE" stroke-width="1.5" stroke-miterlimit="10" stroke-linecap="round"/>
</g>
<defs>
<clipPath id="clip0_1593_18628">
<rect width="28" height="28" fill="white" transform="translate(0 0.5)"/>
</clipPath>
</defs>
</svg>
